<svg width="12" height="20" viewBox="0 0 12 20" fill="none" xmlns="http://www.w3.org/2000/svg">
<path d="M11.692 7.86671C11.6156 7.75361 11.5125 7.66103 11.3919 7.5971C11.2713 7.53316 11.1368 7.49983 11.0003 7.50004H8.50033V5.83337H10.3337C10.5547 5.83337 10.7666 5.74558 10.9229 5.5893C11.0792 5.43302 11.167 5.22105 11.167 5.00004V1.66671C11.167 1.44569 11.0792 1.23373 10.9229 1.07745C10.7666 0.921171 10.5547 0.833374 10.3337 0.833374H7.66699C6.38511 0.833374 5.15574 1.3426 4.24931 2.24902C3.34288 3.15545 2.83366 4.38483 2.83366 5.66671V7.50004H1.00033C0.779312 7.50004 0.56735 7.58784 0.41107 7.74412C0.25479 7.9004 0.166992 8.11236 0.166992 8.33337V11.6667C0.166992 11.8877 0.25479 12.0997 0.41107 12.256C0.56735 12.4122 0.779312 12.5 1.00033 12.5H2.83366V18.3334C2.83366 18.5544 2.92146 18.7663 3.07774 18.9226C3.23402 19.0789 3.44598 19.1667 3.66699 19.1667H7.66699C7.88801 19.1667 8.09997 19.0789 8.25625 18.9226C8.41253 18.7663 8.50033 18.5544 8.50033 18.3334V12.5H9.66699C9.83389 12.5002 9.99699 12.4502 10.1352 12.3566C10.2734 12.263 10.3802 12.1301 10.442 11.975L11.7753 8.64171C11.8257 8.51552 11.8444 8.37894 11.8299 8.24386C11.8153 8.10879 11.768 7.97931 11.692 7.86671ZM9.10033 10.8334H7.66699C7.44598 10.8334 7.23402 10.9212 7.07774 11.0775C6.92146 11.2337 6.83366 11.4457 6.83366 11.6667V17.5H4.50033V11.6667C4.50033 11.4457 4.41253 11.2337 4.25625 11.0775C4.09997 10.9212 3.88801 10.8334 3.66699 10.8334H1.83366V9.16671H3.66699C3.88801 9.16671 4.09997 9.07891 4.25625 8.92263C4.41253 8.76635 4.50033 8.55439 4.50033 8.33337V5.66671C4.50252 4.82753 4.83686 4.02335 5.43025 3.42997C6.02364 2.83658 6.82782 2.50224 7.66699 2.50004H9.50033V4.16671H8.83366C8.55151 4.1256 8.26392 4.14285 7.9887 4.21739C7.71349 4.29193 7.4565 4.42217 7.23366 4.60004C7.09842 4.74162 6.99326 4.90912 6.92452 5.09245C6.85577 5.27577 6.82486 5.47112 6.83366 5.66671V8.33337C6.83366 8.55439 6.92146 8.76635 7.07774 8.92263C7.23402 9.07891 7.44598 9.16671 7.66699 9.16671H9.76699L9.10033 10.8334Z" fill="white"/>
</svg>
