<svg width="18" height="18" viewBox="0 0 18 18" fill="none" xmlns="http://www.w3.org/2000/svg">
<path d="M13.4503 3.54999C13.2525 3.54999 13.0592 3.60864 12.8948 3.71852C12.7303 3.8284 12.6021 3.98458 12.5264 4.16731C12.4508 4.35003 12.431 4.5511 12.4695 4.74508C12.5081 4.93906 12.6034 5.11724 12.7432 5.2571C12.8831 5.39695 13.0613 5.49219 13.2552 5.53078C13.4492 5.56936 13.6503 5.54956 13.833 5.47387C14.0157 5.39818 14.1719 5.27001 14.2818 5.10556C14.3917 4.94111 14.4503 4.74777 14.4503 4.54999C14.4503 4.28477 14.345 4.03042 14.1574 3.84288C13.9699 3.65535 13.7155 3.54999 13.4503 3.54999ZM17.2837 5.56666C17.2675 4.87524 17.138 4.19116 16.9003 3.54166C16.6884 2.98593 16.3586 2.48272 15.9337 2.06666C15.521 1.63951 15.0166 1.3118 14.4587 1.10832C13.8109 0.863457 13.126 0.730998 12.4337 0.716656C11.5503 0.666656 11.267 0.666656 9.00033 0.666656C6.73366 0.666656 6.45033 0.666656 5.56699 0.716656C4.87462 0.730998 4.18978 0.863457 3.54199 1.10832C2.98506 1.31386 2.4811 1.64129 2.06699 2.06666C1.63985 2.4793 1.31214 2.98369 1.10866 3.54166C0.863793 4.18944 0.731334 4.87428 0.716992 5.56666C0.666992 6.44999 0.666992 6.73332 0.666992 8.99999C0.666992 11.2667 0.666992 11.55 0.716992 12.4333C0.731334 13.1257 0.863793 13.8105 1.10866 14.4583C1.31214 15.0163 1.63985 15.5207 2.06699 15.9333C2.4811 16.3587 2.98506 16.6861 3.54199 16.8917C4.18978 17.1365 4.87462 17.269 5.56699 17.2833C6.45033 17.3333 6.73366 17.3333 9.00033 17.3333C11.267 17.3333 11.5503 17.3333 12.4337 17.2833C13.126 17.269 13.8109 17.1365 14.4587 16.8917C15.0166 16.6882 15.521 16.3605 15.9337 15.9333C16.3605 15.5188 16.6906 15.0152 16.9003 14.4583C17.138 13.8088 17.2675 13.1247 17.2837 12.4333C17.2837 11.55 17.3337 11.2667 17.3337 8.99999C17.3337 6.73332 17.3337 6.44999 17.2837 5.56666ZM15.7837 12.3333C15.7776 12.8623 15.6818 13.3864 15.5003 13.8833C15.3673 14.246 15.1536 14.5737 14.8753 14.8417C14.605 15.1171 14.278 15.3304 13.917 15.4667C13.4201 15.6481 12.896 15.7439 12.367 15.75C11.5337 15.7917 11.2253 15.8 9.03366 15.8C6.84199 15.8 6.53366 15.8 5.70033 15.75C5.15107 15.7603 4.60415 15.6757 4.08366 15.5C3.73848 15.3567 3.42646 15.144 3.16699 14.875C2.8904 14.6073 2.67936 14.2793 2.55033 13.9167C2.34687 13.4126 2.23403 12.8766 2.21699 12.3333C2.21699 11.5 2.16699 11.1917 2.16699 8.99999C2.16699 6.80832 2.16699 6.49999 2.21699 5.66666C2.22073 5.12587 2.31945 4.58994 2.50866 4.08332C2.65536 3.73158 2.88055 3.41804 3.16699 3.16666C3.42017 2.88013 3.73307 2.65257 4.08366 2.49999C4.59162 2.31669 5.12699 2.22089 5.66699 2.21666C6.50033 2.21666 6.80866 2.16666 9.00033 2.16666C11.192 2.16666 11.5003 2.16666 12.3337 2.21666C12.8626 2.22272 13.3867 2.31853 13.8837 2.49999C14.2624 2.64053 14.6022 2.86903 14.8753 3.16666C15.1484 3.42264 15.3618 3.7356 15.5003 4.08332C15.6855 4.59077 15.7814 5.12647 15.7837 5.66666C15.8253 6.49999 15.8337 6.80832 15.8337 8.99999C15.8337 11.1917 15.8253 11.5 15.7837 12.3333ZM9.00033 4.72499C8.15517 4.72664 7.32946 4.97876 6.62754 5.4495C5.92561 5.92025 5.37897 6.58849 5.05669 7.36978C4.7344 8.15108 4.65093 9.01038 4.81682 9.8391C4.98271 10.6678 5.39052 11.4288 5.98872 12.0258C6.58692 12.6228 7.34867 13.0292 8.17771 13.1934C9.00675 13.3577 9.86588 13.2726 10.6466 12.9488C11.4272 12.625 12.0944 12.077 12.5638 11.3742C13.0331 10.6713 13.2837 9.84515 13.2837 8.99999C13.2848 8.43758 13.1747 7.8805 12.9597 7.36079C12.7447 6.84108 12.4291 6.369 12.0311 5.9717C11.633 5.5744 11.1603 5.25972 10.6402 5.04576C10.12 4.83181 9.56274 4.72279 9.00033 4.72499ZM9.00033 11.775C8.45148 11.775 7.91496 11.6122 7.45862 11.3073C7.00227 11.0024 6.64659 10.569 6.43656 10.0619C6.22653 9.55487 6.17157 8.99691 6.27865 8.45861C6.38572 7.92032 6.65001 7.42586 7.0381 7.03777C7.4262 6.64968 7.92065 6.38539 8.45895 6.27831C8.99725 6.17124 9.55521 6.22619 10.0623 6.43622C10.5693 6.64626 11.0027 7.00194 11.3077 7.45828C11.6126 7.91463 11.7753 8.45115 11.7753 8.99999C11.7753 9.36441 11.7035 9.72526 11.5641 10.0619C11.4246 10.3986 11.2202 10.7045 10.9625 10.9622C10.7049 11.2199 10.399 11.4243 10.0623 11.5638C9.72559 11.7032 9.36474 11.775 9.00033 11.775Z" fill="white"/>
</svg>
