<svg width="16" height="20" viewBox="0 0 16 20" fill="none" xmlns="http://www.w3.org/2000/svg">
<path d="M10.5929 8.00939C11.2805 7.32176 11.6668 6.38913 11.6668 5.41667C11.6668 4.44421 11.2805 3.51157 10.5929 2.82394C9.90526 2.13631 8.97262 1.75 8.00016 1.75C7.0277 1.75 6.09507 2.13631 5.40744 2.82394C4.7198 3.51157 4.3335 4.44421 4.3335 5.41667C4.3335 6.38913 4.7198 7.32176 5.40744 8.00939C6.09507 8.69703 7.0277 9.08333 8.00016 9.08333C8.97262 9.08333 9.90526 8.69703 10.5929 8.00939Z" stroke="#006AFF" stroke-width="2" stroke-linecap="round" stroke-linejoin="round"/>
<path d="M3.46289 13.7127C4.66625 12.5094 6.29836 11.8333 8.00016 11.8333C9.70197 11.8333 11.3341 12.5094 12.5374 13.7127C13.7408 14.9161 14.4168 16.5482 14.4168 18.25H1.5835C1.5835 16.5482 2.25954 14.9161 3.46289 13.7127Z" stroke="#006AFF" stroke-width="2" stroke-linecap="round" stroke-linejoin="round"/>
</svg>
