<svg width="20" height="18" viewBox="0 0 20 18" fill="none" xmlns="http://www.w3.org/2000/svg">
<path d="M18.5536 1.02312C18.3163 0.825731 18.03 0.696365 17.725 0.64879C17.4201 0.601214 17.1079 0.637209 16.8218 0.752944L1.88772 6.7824C1.56835 6.91381 1.29649 7.13923 1.10822 7.42875C0.919961 7.71827 0.824197 8.05821 0.833645 8.40343C0.843093 8.74865 0.957305 9.08283 1.16112 9.36162C1.36494 9.64042 1.64872 9.85063 1.97481 9.96437L4.99564 11.015L6.67939 16.583C6.70227 16.6574 6.73548 16.7282 6.77804 16.7933C6.7845 16.8033 6.79361 16.8108 6.80047 16.8205C6.84964 16.8891 6.90907 16.9498 6.97666 17.0003C6.99589 17.015 7.0143 17.0287 7.03485 17.0417C7.11396 17.0942 7.20157 17.1326 7.29379 17.1551L7.30366 17.156L7.30925 17.1584C7.36469 17.1696 7.42113 17.1754 7.47771 17.1754C7.48315 17.1754 7.48798 17.1728 7.49337 17.1727C7.57876 17.1713 7.6634 17.1565 7.74428 17.1292C7.7631 17.1227 7.77922 17.112 7.79748 17.1043C7.8578 17.0793 7.91494 17.0472 7.96772 17.0088C8.00999 16.9732 8.05228 16.9376 8.09457 16.902L10.3464 14.4158L13.7049 17.0176C14.0006 17.2478 14.3646 17.3729 14.7393 17.3732C15.1319 17.3727 15.5125 17.2372 15.8171 16.9895C16.1217 16.7418 16.3319 16.3968 16.4125 16.0125L19.1314 2.66538C19.193 2.36498 19.1718 2.05347 19.07 1.7642C18.9682 1.47493 18.7897 1.21876 18.5536 1.02312ZM7.80814 11.2803C7.69259 11.3954 7.61361 11.542 7.58109 11.7018L7.32316 12.9552L6.66978 10.7943L10.0575 9.03015L7.80814 11.2803ZM14.7263 15.7L10.7574 12.6255C10.5913 12.4972 10.383 12.4361 10.174 12.4545C9.96494 12.4729 9.7705 12.5694 9.62942 12.7248L8.90825 13.5208L9.16311 12.282L15.0656 6.37954C15.2065 6.23885 15.2923 6.05234 15.3076 5.85381C15.3228 5.65529 15.2665 5.45786 15.1487 5.29731C15.0309 5.13675 14.8596 5.02368 14.6656 4.97857C14.4717 4.93347 14.268 4.95931 14.0915 5.05142L5.62043 9.46194L2.5168 8.32619L17.4989 2.33251L14.7263 15.7Z" fill="white"/>
</svg>
