<svg width="18" height="18" viewBox="0 0 18 18" fill="none" xmlns="http://www.w3.org/2000/svg">
<path d="M15.1998 9.83334C15.0165 9.83334 14.8248 9.775 14.6415 9.73334C14.2702 9.65152 13.9054 9.5429 13.5498 9.40834C13.1632 9.26769 12.7383 9.275 12.3568 9.42884C11.9752 9.58269 11.6641 9.8722 11.4832 10.2417L11.2998 10.6167C10.4882 10.1652 9.74233 9.60436 9.08317 8.95C8.42881 8.29085 7.86803 7.545 7.41651 6.73334L7.76651 6.5C8.13598 6.3191 8.42549 6.00794 8.57933 5.62641C8.73318 5.24488 8.74048 4.81993 8.59984 4.43334C8.46753 4.07702 8.35895 3.71233 8.27484 3.34167C8.23317 3.15834 8.19984 2.96667 8.17484 2.775C8.07364 2.18802 7.76619 1.65645 7.30786 1.27603C6.84952 0.895616 6.27042 0.691343 5.67484 0.700002H3.17484C2.8157 0.69663 2.46005 0.77068 2.1321 0.917111C1.80415 1.06354 1.5116 1.27892 1.27437 1.54857C1.03713 1.81823 0.860785 2.13583 0.75733 2.47976C0.653874 2.8237 0.625739 3.18588 0.67484 3.54167C1.11879 7.03282 2.7132 10.2766 5.20622 12.7605C7.69924 15.2445 10.9488 16.8271 14.4415 17.2583H14.7582C15.3727 17.2592 15.966 17.0338 16.4248 16.625C16.6885 16.3892 16.8991 16.1002 17.0427 15.7769C17.1864 15.4537 17.2598 15.1037 17.2582 14.75V12.25C17.248 11.6712 17.0372 11.1138 16.6618 10.6731C16.2864 10.2323 15.7697 9.93552 15.1998 9.83334ZM15.6165 14.8333C15.6164 14.9517 15.591 15.0686 15.5422 15.1764C15.4933 15.2841 15.4221 15.3802 15.3332 15.4583C15.2401 15.5387 15.1312 15.5988 15.0135 15.6347C14.8958 15.6705 14.772 15.6814 14.6498 15.6667C11.5289 15.2665 8.63004 13.8387 6.41044 11.6086C4.19084 9.37842 2.77685 6.47278 2.39151 3.35C2.37824 3.22793 2.38987 3.10444 2.42567 2.98699C2.46148 2.86955 2.52073 2.76058 2.59984 2.66667C2.67793 2.57778 2.77406 2.50654 2.88182 2.45768C2.98959 2.40883 3.10652 2.38349 3.22484 2.38334H5.72484C5.91863 2.37902 6.10786 2.4424 6.25996 2.56256C6.41206 2.68272 6.51751 2.85214 6.55817 3.04167C6.59151 3.26945 6.63317 3.49445 6.68317 3.71667C6.77944 4.15596 6.90756 4.58765 7.06651 5.00834L5.89984 5.55C5.80009 5.59577 5.71036 5.66079 5.6358 5.74133C5.56125 5.82187 5.50334 5.91635 5.4654 6.01933C5.42746 6.12231 5.41023 6.23178 5.41471 6.34144C5.41919 6.4511 5.44529 6.55879 5.49151 6.65834C6.69084 9.2273 8.75588 11.2923 11.3248 12.4917C11.5277 12.575 11.7553 12.575 11.9582 12.4917C12.0621 12.4545 12.1576 12.397 12.2391 12.3227C12.3207 12.2483 12.3866 12.1584 12.4332 12.0583L12.9498 10.8917C13.3806 11.0457 13.8203 11.1737 14.2665 11.275C14.4887 11.325 14.7137 11.3667 14.9415 11.4C15.131 11.4407 15.3005 11.5461 15.4206 11.6982C15.5408 11.8503 15.6042 12.0395 15.5998 12.2333L15.6165 14.8333Z" fill="white"/>
</svg>
