<svg width="15" height="23" viewBox="0 0 15 23" fill="none" xmlns="http://www.w3.org/2000/svg">
<path d="M14.4336 19.5083L13.4717 16.6548C13.4264 16.5208 13.3532 16.3978 13.257 16.2942C13.1607 16.1905 13.0436 16.1084 12.9133 16.0533C12.783 15.9982 12.6425 15.9714 12.501 15.9746C12.3596 15.9777 12.2205 16.0109 12.0928 16.0718C11.7062 16.2208 11.2977 16.3049 10.8838 16.3208C10.6511 16.3503 10.4159 16.2914 10.2246 16.1558C10.0499 15.9243 9.9649 15.6374 9.98533 15.3482V11.0005H13.002C13.1333 11.0006 13.2634 10.9748 13.3848 10.9245C13.5061 10.8743 13.6164 10.8006 13.7093 10.7078C13.8022 10.6149 13.8758 10.5046 13.926 10.3833C13.9763 10.2619 14.0021 10.1318 14.002 10.0005V6.09522C14.0021 5.96388 13.9763 5.8338 13.926 5.71244C13.8758 5.59108 13.8022 5.48082 13.7093 5.38794C13.6164 5.29507 13.5061 5.22141 13.3848 5.17118C13.2634 5.12096 13.1333 5.09514 13.002 5.09522H10V1.00049C10.0001 0.869145 9.97426 0.739075 9.92404 0.617715C9.87381 0.496355 9.80015 0.386085 9.70728 0.293212C9.6144 0.200338 9.50413 0.126681 9.38277 0.0764536C9.26141 0.0262259 9.13134 0.000412204 9 0.00048845H6.07031C5.78544 0.00179717 5.51124 0.108967 5.30098 0.301171C5.09072 0.493374 4.95943 0.756883 4.93262 1.04049C4.8927 2.03805 4.56049 3.00188 3.97729 3.81219C3.39409 4.6225 2.58561 5.24354 1.65234 5.59814C1.45873 5.66776 1.29133 5.79544 1.173 5.96376C1.05467 6.13208 0.991183 6.33282 0.991211 6.53857V10.1226C0.991136 10.2539 1.01695 10.384 1.06718 10.5053C1.11741 10.6267 1.19106 10.737 1.28394 10.8298C1.37681 10.9227 1.48708 10.9964 1.60844 11.0466C1.7298 11.0968 1.85987 11.1226 1.99121 11.1226H3.01562V15.6577C3.03244 17.3403 3.71008 18.9488 4.90234 20.1362C5.56745 20.7599 6.34948 21.2456 7.20331 21.5654C8.05714 21.8852 8.96585 22.0328 9.877 21.9995C9.93071 21.9995 9.9854 21.9995 10.0401 21.9985C11.586 21.9731 13.6583 21.351 14.3126 20.3911C14.3997 20.2634 14.456 20.1171 14.477 19.9639C14.498 19.8107 14.4832 19.6548 14.4336 19.5083ZM10.0068 19.9985C9.33419 20.052 8.65775 19.9651 8.02045 19.7434C7.38314 19.5217 6.79887 19.1699 6.30469 18.7104C5.49087 17.9016 5.02784 16.8051 5.01562 15.6577V10.1226C5.0157 9.99122 4.98988 9.86115 4.93966 9.73979C4.88943 9.61843 4.81577 9.50816 4.7229 9.41528C4.63002 9.32241 4.51975 9.24875 4.39839 9.19852C4.27703 9.1483 4.14696 9.12248 4.01562 9.12256H2.99121V7.20556C4.00101 6.71123 4.87591 5.97945 5.54093 5.07291C6.20595 4.16638 6.64126 3.11212 6.80957 2.00049H8V6.09522C7.99993 6.22656 8.02574 6.35663 8.07597 6.47799C8.1262 6.59935 8.19985 6.70962 8.29273 6.80249C8.3856 6.89537 8.49587 6.96902 8.61723 7.01925C8.73859 7.06948 8.86866 7.09529 9 7.09522H12.002V9.00049H8.9854C8.85406 9.00041 8.72399 9.02623 8.60263 9.07645C8.48127 9.12668 8.371 9.20034 8.27812 9.29321C8.18525 9.38609 8.11159 9.49636 8.06137 9.61771C8.01114 9.73907 7.98532 9.86915 7.9854 10.0005V15.3647C7.97156 15.7757 8.04022 16.1852 8.18732 16.5691C8.33442 16.9531 8.55698 17.3036 8.84185 17.6001C9.12265 17.8582 9.45376 18.0554 9.8144 18.1794C10.175 18.3034 10.5574 18.3516 10.9376 18.3208C11.2558 18.3086 11.5726 18.2708 11.8848 18.2075L12.3096 19.4663C11.5857 19.797 10.8024 19.978 10.0068 19.9985Z" fill="#006AFF"/>
</svg>
