<svg width="16" height="17" viewBox="0 0 16 17" fill="none" xmlns="http://www.w3.org/2000/svg">
<path d="M4.44466 11.6111C3.67856 11.612 2.93908 11.3301 2.3679 10.8196C1.79671 10.309 1.43398 9.6057 1.3492 8.84431C1.26441 8.08291 1.46354 7.317 1.90844 6.69332C2.35333 6.06964 3.0127 5.63203 3.76022 5.46434C3.54394 4.45564 3.73722 3.40233 4.29755 2.53613C4.85787 1.66993 5.73935 1.06179 6.74805 0.845509C7.75676 0.629225 8.81007 0.822507 9.67627 1.38283C10.5425 1.94316 11.1506 2.82464 11.3669 3.83334H11.4447C12.4091 3.83237 13.3394 4.18978 14.0551 4.83619C14.7709 5.48259 15.2209 6.37188 15.3178 7.3314C15.4147 8.29093 15.1516 9.25224 14.5796 10.0287C14.0077 10.8052 13.1676 11.3414 12.2224 11.5333M10.6669 9.27779L8.33355 6.94445M8.33355 6.94445L6.00022 9.27779M8.33355 6.94445V16.2778" stroke="white" stroke-linecap="round" stroke-linejoin="round"/>
</svg>
